<?xml version="1.0" encoding="utf-8"?>
<!-- Svg Vector Icons : http://www.onlinewebfonts.com/icon -->
<!DOCTYPE svg PUBLIC "-//W3C//DTD SVG 1.1//EN" "http://www.w3.org/Graphics/SVG/1.1/DTD/svg11.dtd">
<svg version="1.1" xmlns="http://www.w3.org/2000/svg" xmlns:xlink="http://www.w3.org/1999/xlink" x="0px" y="0px" viewBox="0 0 256 256" enable-background="new 0 0 256 256" xml:space="preserve">
<metadata> Svg Vector Icons : http://www.onlinewebfonts.com/icon </metadata>
<g><g><g><path fill="#000000" d="M128,246c-10.7,0-21.1-1.4-31.3-4.3c-10.2-2.8-19.6-6.8-28.3-11.8c-8.6-5.1-16.5-11.2-23.8-18.5c-7.3-7.2-13.4-15.2-18.5-23.8c-5.1-8.6-9-18-11.8-28.3C11.4,149.1,10,138.7,10,128c0-10.7,1.4-21.1,4.3-31.3c2.8-10.2,6.8-19.6,11.8-28.3s11.2-16.5,18.5-23.8s15.2-13.4,23.8-18.5c8.6-5.1,18-9,28.3-11.8S117.3,10,128,10c10.7,0,21.1,1.4,31.3,4.3c10.2,2.8,19.6,6.8,28.3,11.8c8.6,5.1,16.5,11.2,23.8,18.5c7.2,7.2,13.4,15.2,18.5,23.8c5.1,8.6,9,18,11.8,28.3c2.8,10.2,4.3,20.7,4.3,31.3c0,10.7-1.4,21.1-4.3,31.3c-2.8,10.2-6.8,19.6-11.8,28.3c-5.1,8.6-11.2,16.5-18.5,23.8c-7.2,7.2-15.2,13.4-23.8,18.5c-8.6,5.1-18,9-28.3,11.8C149.1,244.6,138.6,246,128,246z M128,95.1l35.9-35.9V44.3c0-0.7-0.1-1.4-0.5-2c-0.3-0.6-0.7-1-1.3-1.4c-0.6-0.3-1.2-0.5-1.9-0.5c-0.5,0-0.9,0.1-1.3,0.2l-31.2,31l-30.7-31c-0.4-0.1-0.9-0.2-1.3-0.2c-1.1,0-2,0.4-2.8,1.1c-0.7,0.7-1.1,1.7-1.1,2.8V59L128,95.1z M102.7,205.6h2.1c1.2,0,2.4-0.4,3.6-1.2l19.7-14.3l19.8,14.2c1.2,0.9,2.4,1.3,3.6,1.3l2.6-0.2l1.2-1.7c0.6-0.8,0.9-1.8,0.9-2.9c0-0.7-0.1-1.5-0.4-2.3l-7.5-23.1l19.7-14.4c1.7-1.2,2.6-2.7,2.6-4.5c0-0.5-0.1-1-0.2-1.4c-0.7-2.3-2.6-3.4-5.4-3.4h-24.3l-7.4-20.1c-0.3-0.9-0.8-1.7-1.4-2.4l28.4-28.4c2.4-2.4,3.6-5,3.6-7.7V73.7L128,109.6L91.9,73.4l-0.1,19.7c0,2.5,1.3,5.1,3.9,7.7l28.7,28.7l0.1,0.1c-0.5,0.6-0.9,1.3-1.1,2l-7.5,20.1H91c-2.9,0-4.6,1.1-5.3,3.4c-0.2,0.5-0.3,1-0.3,1.4c0,1.8,0.9,3.3,2.7,4.5l20,14.5l-7.5,23c-0.3,0.8-0.4,1.6-0.4,2.3c0,1.1,0.3,2.1,0.9,3L102.7,205.6z"/></g></g></g>
</svg>